PathFileType	4	(X/Y/Z)	D:\TRACE\spotREDO_2-26-24\spot_justArm_Motion_1_2-platform.trc
DataRate	CameraRate	NumFrames	NumMarkers	Units	OrigDataRate	OrigDataStartFrame	OrigNumFrames
100.00	100.00	      43	5	mm	100.00	3501	      7000
Frame#	Time	Left_Front			Right_Front			Left_Aft			Right_Aft			Post			
		X1	Y1	Z1	X2	Y2	Z2	X3	Y3	Z3	X4	Y4	Z4	X5	Y5	Z5	

3501	35.000	-652.84808	-15.52166	-578.22699	761.87646	-4.80281	-494.13034	-724.22620	16.65227	640.30328	845.30603	23.87105	644.62976	56.32308	603.79828	-997.45288	
3502	35.010	-653.20441	-15.33851	-578.20178	761.34521	-4.58272	-493.96411	-724.45532	16.45706	640.37390	844.74518	23.67326	644.81940	56.38557	604.38812	-996.66229	
3503	35.020	-653.79059	-14.89633	-578.24390	760.90906	-4.35136	-493.86053	-724.95007	16.19554	640.47424	844.31531	23.42389	644.96863	56.14206	604.95978	-996.21918	
3504	35.030	-654.28485	-14.43593	-578.14929	760.33978	-3.95259	-493.85410	-725.40009	15.99848	640.58893	843.99646	23.07227	645.08142	55.36765	605.31512	-996.03015	
3505	35.040	-654.28864	-14.22943	-577.91913	760.01874	-3.83466	-493.78653	-726.12878	15.43642	640.64948	843.74719	22.66351	645.13043	54.82708	605.70203	-995.92511	
3506	35.050	-655.05127	-14.07452	-578.01703	759.37445	-3.44970	-493.84506	-726.52618	15.28676	640.66144	843.18976	22.43528	645.11694	54.08424	606.26306	-995.61127	
3507	35.060	-655.94086	-13.87317	-577.92395	758.74121	-3.24237	-493.65833	-726.86621	15.19655	640.79358	842.19006	21.88824	645.15662	52.40666	606.84540	-995.61151	
3508	35.070	-656.52661	-13.62704	-577.93298	758.24084	-2.88074	-493.67560	-727.54681	14.82516	640.91223	841.81079	21.66769	645.17883	52.32455	607.37909	-995.05127	
3509	35.080	-657.01740	-13.19215	-577.87799	757.83185	-2.71661	-493.54355	-728.23193	14.53662	641.10138	841.30768	21.26520	645.28180	51.80758	607.74304	-994.87268	
3510	35.090	-657.56085	-12.73614	-577.71466	757.29956	-2.34367	-493.46719	-728.80750	14.34452	641.05615	841.01221	21.03209	645.37402	51.46001	608.30731	-994.46539	
3511	35.100	-657.98462	-12.46771	-577.61444	756.59082	-2.20267	-493.32214	-729.51080	13.88381	641.26764	840.09442	20.76965	645.53729	50.85495	608.90674	-993.97272	
3512	35.110	-658.67981	-12.19973	-577.55273	755.88940	-1.89631	-493.28278	-729.96106	13.64921	641.29095	839.40607	20.37329	645.59833	50.55393	609.28979	-993.58679	
3513	35.120	-659.34589	-11.92630	-577.41058	755.27393	-1.56454	-493.23907	-730.47534	13.19698	641.41290	839.00464	20.12628	645.72491	50.20400	609.86731	-992.98413	
3514	35.130	-659.74677	-11.82619	-577.45319	754.79944	-1.48496	-493.23572	-731.15717	12.67371	641.36462	838.27600	19.67966	645.88403	49.42031	610.43787	-992.36652	
3515	35.140	-660.61200	-11.28045	-577.33795	754.23663	-1.35808	-493.19418	-731.65015	12.37473	641.56488	837.84143	19.31459	645.93390	48.78364	610.76624	-991.93848	
3516	35.150	-661.14471	-10.91194	-577.19647	753.42987	-0.90553	-493.02423	-732.17877	12.25790	641.64795	837.02191	18.90398	645.79480	48.38330	611.28821	-991.43201	
3517	35.160	-661.69659	-10.69615	-577.14178	752.70782	-0.70095	-492.92883	-733.15656	11.73287	641.60217	836.17603	18.79846	645.94659	47.51435	611.95593	-991.01447	
3518	35.170	-662.60541	-10.43504	-577.21875	752.26947	-0.50681	-492.78003	-733.48602	11.61062	641.72894	835.85913	18.73715	646.06952	46.81176	612.46478	-990.84888	
3519	35.180	-663.27460	-10.19707	-577.06744	751.61902	-0.17470	-492.62521	-734.36139	11.24223	641.86047	834.83777	18.19372	646.28186	46.10633	612.80884	-990.59656	
3520	35.190	-663.81604	-9.81060	-576.97211	750.72437	0.24412	-492.63419	-735.15985	10.89252	642.04059	834.27521	18.00492	646.35938	45.09730	613.52600	-990.32294	
3521	35.200	-664.50879	-9.27574	-576.89996	750.10925	0.47944	-492.61331	-735.72021	10.60523	642.07721	833.33105	17.44246	646.47589	44.91523	614.14526	-989.80927	
3522	35.210	-665.31665	-9.04948	-576.82043	749.38263	0.89202	-492.76776	-736.38440	10.13087	642.08466	832.90039	17.22255	646.54132	44.37852	614.64459	-989.54095	
3523	35.220	-666.18896	-8.78452	-576.83887	748.51355	1.10061	-492.62549	-737.14313	9.87646	642.25470	832.01770	16.81876	646.70758	43.84398	615.16327	-989.11499	
3524	35.230	-666.61945	-8.59282	-576.75812	747.96698	1.30112	-492.47226	-738.03265	9.57838	642.28705	831.41010	16.53109	646.76752	42.97177	615.94128	-988.68335	
3525	35.240	-667.47137	-8.22932	-576.64081	747.04828	1.65471	-492.46069	-738.80011	9.19221	642.36646	830.72296	16.32685	646.89246	42.16170	616.58783	-988.34875	
3526	35.250	-668.46838	-7.65476	-576.63867	746.17419	1.97045	-492.29312	-739.34222	8.83436	642.52893	829.94714	15.86654	646.98199	41.05150	616.68561	-987.66168	
3527	35.260	-669.10663	-7.43379	-576.44861	745.57892	2.14084	-492.17670	-740.31818	8.36545	642.54132	829.13989	15.38388	647.01971	40.30738	617.33588	-987.10022	
3528	35.270	-669.79834	-7.26766	-576.36285	744.98407	2.42617	-492.06335	-741.07098	8.14772	642.69348	828.33069	15.04745	647.10297	39.51978	617.91449	-986.51147	
3529	35.280	-670.54889	-6.87052	-576.32806	744.13031	2.62846	-491.94122	-741.53680	7.88861	642.69836	827.58356	14.63954	647.20605	38.77380	618.49451	-986.04523	
3530	35.290	-671.39276	-6.52912	-576.28094	743.24072	2.87824	-491.71814	-742.46442	7.34599	642.95679	826.75916	14.32383	647.15881	37.98832	619.05518	-985.72711	
3531	35.300	-672.26721	-5.95380	-576.13861	742.61279	3.16640	-491.60513	-743.39069	6.97368	643.04974	826.14307	14.05846	647.31030	36.93236	619.68793	-985.12585	
3532	35.310	-673.06000	-5.59550	-576.03540	741.76263	3.32961	-491.61664	-744.01105	6.69575	643.14355	825.19183	13.58523	647.43561	36.24391	620.21606	-984.81805	
3533	35.320	-673.60980	-5.56973	-576.02808	740.71088	3.65789	-491.54251	-744.81378	6.27227	643.28406	824.16937	13.13166	647.45776	35.47012	620.71307	-984.57977	
3534	35.330	-674.87524	-5.29097	-575.91077	739.87823	4.20243	-491.76907	-745.63898	5.99474	643.32611	823.48907	13.01223	647.55219	34.62979	621.21490	-984.09198	
3535	35.340	-675.45776	-4.92857	-575.65668	739.05170	4.48682	-491.58267	-746.68427	5.64808	643.38110	822.58728	12.52008	647.61572	33.51200	621.72614	-983.82013	
3536	35.350	-676.47479	-4.35335	-575.78400	738.14496	4.69782	-491.45520	-747.45496	5.48603	643.41730	821.63544	12.08583	647.75800	32.70038	622.10736	-983.64465	
3537	35.360	-677.22876	-4.06849	-575.81342	737.14795	5.13519	-491.43045	-748.31940	5.09020	643.43793	820.96509	11.69063	647.79932	31.86604	622.99512	-983.13708	
3538	35.370	-678.09021	-3.63807	-575.64630	736.49866	5.37859	-491.22504	-749.15308	4.69989	643.47650	820.23383	11.53085	647.98083	31.10573	623.67670	-982.60889	
3539	35.380	-678.75433	-3.43248	-575.51642	735.81915	5.53349	-491.01044	-749.97119	4.26264	643.63696	819.19983	11.06676	647.89807	30.42466	624.13892	-981.96289	
3540	35.390	-679.89075	-3.03921	-575.46997	734.91327	5.87383	-491.03305	-750.86719	3.85661	643.77954	818.45038	10.59303	647.99695	29.59375	624.83246	-981.40259	
3541	35.400	-680.79132	-2.58885	-575.22766	733.84015	6.13974	-490.97644	-751.73755	3.46831	643.94965	817.43335	10.25438	648.26965	28.50385	625.49115	-980.89099	
3542	35.410	-681.60364	-2.35784	-575.05536	733.04004	6.35083	-490.88391	-752.66449	3.11587	644.06952	816.58649	9.74908	648.28821	28.02245	626.35840	-980.36725	
3543	35.420	-682.39386	-2.06606	-575.02698	732.41888	6.65971	-490.78992	-753.57220	2.85942	644.17169	815.68280	9.49030	648.27686	27.15485	626.97827	-979.94275	
